<svg width="139" height="150" viewBox="0 0 139 150" fill="none" xmlns="http://www.w3.org/2000/svg">
<path d="M138.732 145.233C138.732 147.866 107.715 150 69.4528 150C31.1907 150 0.173096 147.866 0.173096 145.233C0.173096 142.6 31.1907 140.466 69.4528 140.466C107.715 140.466 138.732 142.6 138.732 145.233Z" fill="#F3F2F1"/>
<path d="M25.5398 64.2393L32.8553 64.8805L32.8097 68.4102L26.1198 68.1936L25.5398 64.2393Z" fill="#FAFAF9"/>
<path d="M76.7959 58.5558L76.6137 77.9938L76.4869 91.5624L73.1683 93.7642L72.8276 56.136L76.7959 58.5558Z" fill="#FAFAF9"/>
<path d="M91.9961 81.2729L76.6139 77.9939L76.5713 82.5459L87.1591 84.4819L91.9961 81.2729Z" fill="#FAFAF9"/>
<path d="M100.587 80.9408L104.492 61.532L109.126 62.6376L105.006 82.2715L100.587 80.9408Z" fill="#FAFAF9"/>
<path d="M54.5433 47.9204L54.2544 47.8462L54.3291 46.6764L54.5433 47.9204Z" fill="#DBDCD9"/>
<path d="M98.3132 64.1445L92.3988 62.6086L91.582 57.4224L104.689 60.7847C104.576 61.1994 104.508 61.4609 104.493 61.5323C104.492 61.5337 104.492 61.5356 104.492 61.537L104.364 62.1745H102.448C101.905 62.1745 101.372 62.3216 100.905 62.5996L98.3132 64.1445Z" fill="#DBDCD9"/>
<path d="M105.351 80.6299C104.884 80.017 104.448 79.4462 104.055 78.9317L102.174 75.8736L105.147 74.7372L104.375 62.1745H104.364L104.492 61.537L104.493 61.5323L109.126 62.6379L109.125 62.6389L108.267 66.7298L105.351 80.6299Z" fill="#DBDCD9"/>
<path d="M46.2682 133.013H0.173828L2.76939 130.451H47.7853L46.2682 133.013Z" fill="#DADBD8"/>
<path d="M84.983 79.0278C84.9986 79.05 85.3133 78.8575 85.8088 78.5284C86.3047 78.1997 86.9813 77.7339 87.7219 77.2095C87.8501 77.1187 87.976 77.0289 88.0967 76.9438L87.9552 76.9121C88.3522 77.6063 88.7109 78.2149 88.9759 78.6471C89.2404 79.0793 89.4117 79.3347 89.433 79.3228C89.4547 79.3106 89.3232 79.0325 89.089 78.5833C88.8543 78.1335 88.5164 77.5136 88.1251 76.8161L88.0725 76.722L87.9836 76.7844C87.8629 76.8695 87.7366 76.9584 87.6083 77.0487C86.8678 77.5732 86.2034 78.0565 85.7283 78.4149C85.2532 78.7729 84.9674 79.0055 84.983 79.0278Z" fill="#17282F"/>
<path d="M107.872 129.957C107.749 138.5 114.577 145.523 123.125 145.647C131.672 145.77 138.701 138.945 138.824 130.404C138.948 121.862 132.118 114.838 123.571 114.715C115.024 114.591 107.995 121.416 107.872 129.957Z" fill="#17282F"/>
<path d="M107.875 129.918L107.872 129.957C107.749 138.5 114.577 145.523 123.125 145.647C131.672 145.77 138.701 138.945 138.824 130.404L138.823 130.364L107.875 129.918Z" fill="#17282F"/>
<path d="M112.483 130.024C112.396 136.021 117.19 140.953 123.191 141.039C129.192 141.126 134.126 136.335 134.213 130.338C134.3 124.341 129.506 119.41 123.505 119.323C117.503 119.236 112.569 124.028 112.483 130.024Z" fill="#FAFAF9"/>
<path d="M123.505 119.323C117.504 119.236 112.569 124.028 112.483 130.024L134.213 130.338C134.3 124.341 129.506 119.409 123.505 119.323Z" fill="#DADBD8"/>
<path d="M116.729 130.086C116.676 133.739 119.597 136.743 123.252 136.795C126.907 136.848 129.914 133.93 129.967 130.277C130.02 126.623 127.099 123.62 123.443 123.567C119.788 123.514 116.782 126.432 116.729 130.086Z" fill="#17282F"/>
<path d="M116.001 107.501C116.001 107.501 131.848 102.711 138.402 119.916L105.241 130.181L116.001 107.501Z" fill="#074F62"/>
<path d="M12.3715 129.957C12.2481 138.5 19.077 145.523 27.6243 145.647C36.1718 145.77 43.2006 138.945 43.324 130.404C43.4472 121.862 36.6182 114.838 28.0709 114.715C19.5236 114.591 12.4946 121.416 12.3715 129.957Z" fill="#17282F"/>
<path d="M12.3743 129.918L12.3715 129.957C12.2481 138.5 19.077 145.523 27.6243 145.647C36.1716 145.77 43.2007 138.945 43.324 130.404L43.3226 130.364L12.3743 129.918Z" fill="#17282F"/>
<path d="M16.9824 130.024C16.8959 136.021 21.6899 140.953 27.6908 141.039C33.6917 141.126 38.6267 136.335 38.713 130.338C38.7997 124.341 34.005 119.41 28.0041 119.323C22.0034 119.236 17.069 124.028 16.9824 130.024Z" fill="#FAFAF9"/>
<path d="M28.0042 119.323C22.0035 119.236 17.0691 124.028 16.9824 130.024L38.713 130.338C38.7997 124.341 34.0051 119.409 28.0042 119.323Z" fill="#DADBD8"/>
<path d="M21.2292 130.086C21.1766 133.739 24.097 136.743 27.7523 136.795C31.4076 136.848 34.4137 133.93 34.4667 130.277C34.5194 126.623 31.5985 123.62 27.9431 123.567C24.2878 123.514 21.2819 126.432 21.2292 130.086Z" fill="#17282F"/>
<path d="M49.8627 123.971C49.777 124.015 41.7176 122.726 41.7176 122.726C40.8348 123.876 39.4899 124.58 38.0411 124.649C34.5603 124.816 31.1557 124.969 28.2082 125.101C25.4585 125.223 23.328 127.547 23.4442 130.296L23.4446 130.3C23.5544 132.898 25.6404 134.977 28.2406 135.079L45.3806 135.754C48.1989 135.864 51.9461 134.152 53.706 131.95L49.8627 123.971Z" fill="#074F62"/>
<path d="M11.5539 116.078L5.2985 125.869C4.49756 127.122 5.79333 128.699 7.15874 128.108C7.82083 127.822 8.53399 127.373 9.25689 126.686C12.1177 123.966 17.217 116.802 17.217 116.802L11.5539 116.078Z" fill="#074F62"/>
<path d="M56.4073 117.841C56.404 117.84 56.4168 117.791 56.4438 117.698C56.475 117.596 56.5166 117.46 56.5696 117.287C56.6761 116.925 56.8048 116.381 56.8971 115.672C57.057 114.262 56.9841 112.11 55.9294 109.763C55.415 108.593 54.6536 107.397 53.6249 106.3C52.5915 105.211 51.3143 104.204 49.8242 103.402C48.3384 102.595 46.6611 101.96 44.8635 101.557C43.0655 101.154 41.1539 100.972 39.1982 100.972C37.2406 100.971 35.3317 101.145 33.5005 101.389C31.6691 101.637 29.9103 101.94 28.2554 102.317C24.9432 103.061 22.0611 104.163 19.8319 105.432C17.5948 106.693 16.0089 108.069 15.0184 109.103C14.5188 109.618 14.161 110.046 13.9214 110.338C13.8081 110.48 13.7192 110.591 13.6527 110.675C13.5909 110.749 13.5582 110.787 13.5554 110.785C13.5554 110.785 13.978 110.104 14.9626 109.05C15.9402 107.996 17.5216 106.595 19.763 105.311C21.9964 104.019 24.8912 102.897 28.2147 102.14C29.8754 101.756 31.6385 101.449 33.475 101.198C35.3115 100.951 37.2289 100.775 39.1982 100.775C41.1663 100.775 43.0919 100.96 44.9062 101.369C46.7198 101.778 48.4122 102.423 49.9113 103.243C51.4146 104.058 52.7036 105.081 53.7446 106.188C54.7809 107.304 55.5456 108.52 56.0567 109.707C57.1072 112.087 57.1578 114.264 56.9733 115.681C56.8682 116.395 56.7267 116.939 56.6075 117.299C56.5464 117.47 56.4986 117.604 56.4627 117.705C56.4296 117.796 56.4102 117.842 56.4073 117.841Z" fill="#17282F"/>
<path d="M53.5462 114.456C53.5249 114.448 53.629 114.218 53.7336 113.785C53.85 113.355 53.8997 112.699 53.7899 111.911C53.6816 111.122 53.3778 110.207 52.8672 109.283C52.6173 108.819 52.3093 108.356 51.952 107.907C51.6 107.454 51.1855 107.024 50.7212 106.634C49.7881 105.851 48.748 105.299 47.768 104.907C46.7807 104.526 45.8493 104.297 45.0578 104.167C44.2665 104.036 43.6173 103.98 43.1683 103.953C42.7194 103.925 42.4702 103.915 42.4702 103.9C42.4702 103.893 42.5325 103.886 42.6514 103.883C42.77 103.88 42.9456 103.869 43.1713 103.876C43.6231 103.88 44.2782 103.914 45.0798 104.03C45.8811 104.144 46.8278 104.36 47.8338 104.738C48.8327 105.127 49.8936 105.682 50.8481 106.483C51.3246 106.883 51.7462 107.324 52.1035 107.788C52.4664 108.247 52.7763 108.721 53.0271 109.197C53.5382 110.143 53.8349 111.083 53.9281 111.893C54.0227 112.701 53.9494 113.372 53.8074 113.804C53.763 114.028 53.6664 114.182 53.6281 114.294C53.5803 114.404 53.5524 114.46 53.5462 114.456Z" fill="#F3F2F1"/>
<path d="M59.6169 118.838C59.2369 118.695 58.8333 118.596 58.4107 118.546L56.2269 118.295C56.2913 118.148 56.3519 117.997 56.4082 117.841C56.4129 117.836 56.4314 117.79 56.4626 117.705C56.4986 117.605 56.5464 117.47 56.6074 117.299C56.7266 116.939 56.8681 116.395 56.9732 115.681C57.1577 114.265 57.1071 112.087 56.0566 109.707C55.5455 108.52 54.7809 107.304 53.7446 106.189C52.7035 105.082 51.4145 104.058 49.9112 103.243C48.4121 102.423 46.7198 101.778 44.9061 101.369C44.7355 101.331 44.5638 101.294 44.3911 101.26C49.1134 101.416 53.4715 103.512 56.6732 106.989C59.5114 110.071 60.7985 114.902 59.6169 118.838Z" fill="#1A2C33"/>
<path d="M56.4084 117.84C57.1698 115.733 57.1949 112.791 56.3086 110.511C55.3177 107.961 53.5759 105.811 51.2993 104.293C49.0228 102.774 46.5969 101.779 43.8213 101.25C44.0119 101.25 44.2019 101.253 44.3913 101.259C44.564 101.294 44.7357 101.33 44.9063 101.369C46.72 101.778 48.4123 102.423 49.9114 103.243C51.4148 104.058 52.7038 105.081 53.7448 106.188C54.7811 107.304 55.5458 108.52 56.0568 109.707C57.1073 112.087 57.158 114.264 56.9734 115.681C56.8684 116.395 56.7269 116.939 56.6076 117.299C56.5466 117.47 56.4988 117.604 56.4628 117.705C56.4316 117.79 56.4131 117.836 56.4084 117.84Z" fill="#0C1418"/>
<path d="M70.828 98.7352C70.828 98.7891 59.6667 98.8335 45.9018 98.8335C32.1319 98.8335 20.9734 98.7891 20.9734 98.7352C20.9734 98.6808 32.1319 98.6363 45.9018 98.6363C59.6667 98.6363 70.828 98.6808 70.828 98.7352Z" fill="#17282F"/>
<path d="M70.8521 96.979C70.8521 96.979 71.6712 96.0025 71.7497 94.756C71.8283 93.5094 71.2595 91.9513 69.9175 91.9513H52.7693C49.9907 91.9513 47.7383 94.2022 47.7383 96.979H70.8521Z" fill="#074F62"/>
<path d="M93.4628 78.9917L90.4807 72.7761C89.6659 71.0089 90.316 68.9116 91.9883 67.9148L100.905 62.5995C101.372 62.3215 101.905 62.1744 102.448 62.1744H104.375L105.147 74.7371L102.173 75.8735L104.055 78.9316L93.4628 78.9917Z" fill="#074F62"/>
<path d="M104.403 62.6308C104.403 62.6308 107.454 63.3297 107.838 68.0302C108.222 72.7312 105.146 74.1938 105.146 74.1938L104.403 62.6308Z" fill="white"/>
<path d="M104.403 62.6304C104.408 62.637 104.419 62.7217 104.433 62.8791C104.449 63.0607 104.469 63.2849 104.492 63.5572C104.541 64.1729 104.606 65.0062 104.686 66.0257C104.847 68.1074 105.061 70.9693 105.269 74.1859L105.094 74.0832C105.397 73.9225 105.711 73.686 105.987 73.4193C106.606 72.8211 107.06 72.0896 107.332 71.323C107.606 70.5579 107.739 69.771 107.75 69.0186C107.778 67.5134 107.492 66.1468 106.999 65.1249C106.506 64.094 105.813 63.4381 105.283 63.091C104.749 62.7368 104.396 62.6498 104.403 62.6304C104.397 62.6233 104.499 62.6337 104.657 62.6885C104.818 62.7462 105.057 62.8375 105.334 63.0101C105.892 63.3397 106.628 63.9961 107.155 65.0468C107.683 66.0914 107.993 67.4827 107.977 69.0238C107.972 69.7951 107.841 70.6094 107.559 71.4062C107.279 72.2035 106.807 72.9701 106.157 73.5971C105.863 73.879 105.548 74.1206 105.199 74.3046L105.037 74.3906L105.024 74.2015C104.816 70.9267 104.657 68.0066 104.55 65.9302C104.5 64.9234 104.459 64.1001 104.429 63.4915C104.418 63.2314 104.41 63.0172 104.402 62.8437C104.398 62.698 104.398 62.6242 104.403 62.6304Z" fill="#17282F"/>
<path d="M93.4188 70.4949C93.4188 70.4949 85.2931 74.3427 84.3018 74.9745C83.6142 75.4119 83.0232 76.1794 83.5626 77.5291C84.483 79.8292 88.2823 77.6653 88.2823 77.6653L95.844 73.8874C95.844 73.8874 98.7522 72.515 97.679 70.7994C96.4771 68.8781 93.4188 70.4949 93.4188 70.4949Z" fill="#17282F"/>
<path d="M94.7976 61.2124C94.7976 63.556 93.7192 65.4561 92.389 65.4561C91.0589 65.4561 89.9805 63.556 89.9805 61.2124C89.9805 58.8687 91.0589 56.9682 92.389 56.9682C93.7192 56.9682 94.7976 58.8687 94.7976 61.2124Z" fill="#17282F"/>
<path d="M92.7847 64.1301L94.1077 68.7114C94.6983 68.4121 94.8218 67.8238 94.7234 67.359C94.3916 65.7899 94.2043 64.672 93.8394 63.2978C93.7949 63.1583 92.7847 64.1301 92.7847 64.1301Z" fill="#17282F"/>
<path d="M69.0678 125.67C69.0674 125.67 69.0674 125.67 69.0674 125.67C69.0674 125.67 69.0674 125.67 69.0678 125.67ZM69.0674 125.67C69.064 125.666 68.4546 125.047 66.5878 119.574C66.5911 119.583 66.5939 119.591 66.5968 119.6C68.4565 125.047 69.064 125.666 69.0674 125.67ZM66.2107 118.454C66.1241 118.193 66.0351 117.923 65.9433 117.642C65.7261 116.976 65.5889 116.297 65.5203 115.614C65.5662 116.008 65.6707 116.674 65.8487 117.319C65.9499 117.687 66.0886 118.07 66.2064 118.44C66.2078 118.444 66.2092 118.449 66.2107 118.454Z" fill="#A7A9A8"/>
<path d="M87.4579 132.214C82.8712 132.214 77.4067 131.899 72.5484 131.526C66.6936 131.076 63.2851 124.678 65.5177 115.592C65.5181 115.599 65.5191 115.607 65.52 115.614C65.5886 116.297 65.7259 116.976 65.9431 117.642C66.0349 117.923 66.1238 118.193 66.2104 118.454C66.3325 118.836 66.4612 119.209 66.5876 119.575C68.4543 125.047 69.0638 125.666 69.0671 125.67C69.0671 125.67 69.0671 125.67 69.0676 125.67H83.7244L83.6444 126.636L98.8269 127.271C98.8875 127.331 98.949 127.391 99.0115 127.452C99.9536 128.374 100.751 129.096 100.826 129.096C100.828 129.096 100.829 129.095 100.83 129.094C100.868 129.055 100.116 128.257 99.1496 127.311C99.1397 127.302 99.1302 127.292 99.1203 127.283L99.9314 127.317C100 126.979 99.7071 126.713 99.5041 126.573C99.0981 126.153 98.4375 125.677 97.6695 125.197C98.5373 123.915 100.781 120.116 100.9 114.967C100.905 114.792 100.907 114.614 100.907 114.432C100.905 107.98 98.3372 97.4523 96.4075 90.6569C95.6991 88.1615 95.0929 85.8268 94.6178 83.9116C94.5771 83.7466 94.5369 83.5849 94.4981 83.4265C94.1579 82.0409 93.8934 80.906 93.7169 80.1309C93.5508 79.4022 93.4628 78.9917 93.4628 78.9917L100.812 78.9501C102.844 82.7063 107.179 91.0839 109.97 99.0932C113.717 109.85 107.601 121.019 106.929 122.075C106.256 123.132 103.435 129.537 95.7469 131.554C93.9246 132.032 90.9454 132.214 87.4579 132.214Z" fill="#20353D"/>
<path d="M93.4629 78.9917L99.6902 76.9175C99.6902 76.9175 100.116 77.6617 100.813 78.9501L93.4629 78.9917Z" fill="#20353D"/>
<path d="M6.62389 114.762L6.82296 112.607L58.4109 118.546C61.322 118.888 63.3458 121.607 62.8348 124.492L62.6034 125.798L9.21147 118.045C7.6124 117.812 6.47526 116.37 6.62389 114.762Z" fill="#074F62"/>
<path d="M62.6035 125.798L44.6583 123.192L41.6902 122.762L34.6914 121.745L23.6851 120.146L15.628 118.977L10.2051 118.189L9.21158 118.045C7.70624 117.826 6.61013 116.535 6.61084 115.043C6.61084 114.95 6.61529 114.856 6.624 114.762L6.82307 112.607L58.411 118.546C61.0178 118.852 62.9134 121.065 62.9139 123.595C62.9139 123.891 62.8884 124.19 62.8349 124.492L62.6035 125.798Z" fill="#20353D"/>
<path d="M124.115 107.143C123.761 107.084 123.411 107.038 123.069 107.001C123.465 107.038 123.833 107.085 124.115 107.143ZM120.627 106.89C120.627 106.89 120.627 106.889 120.627 106.888C120.662 106.888 120.699 106.888 120.737 106.888C120.782 106.888 120.83 106.888 120.879 106.888C120.794 106.889 120.71 106.889 120.627 106.89Z" fill="#8F9192"/>
<path d="M106.956 129.175C107.265 128.821 107.58 128.455 107.901 128.074C109.331 126.406 112.115 123.022 114.755 119.035C117.878 114.448 120.369 109.969 120.579 107.555C120.599 107.329 120.614 107.107 120.627 106.89C120.71 106.889 120.794 106.889 120.879 106.888C121.447 106.894 122.311 106.93 123.069 107.001C123.411 107.038 123.761 107.084 124.115 107.143C124.125 107.144 124.134 107.146 124.144 107.149C124.144 107.149 117.44 125.36 106.956 129.175Z" fill="#20353D"/>
<path d="M106.929 129.185C106.929 129.185 107.291 128.786 107.901 128.075C107.58 128.455 107.265 128.822 106.955 129.175C106.946 129.178 106.938 129.181 106.929 129.185ZM114.755 119.035C117.287 115.211 119.685 110.834 120.627 106.888C120.627 106.889 120.627 106.89 120.627 106.891C120.614 107.108 120.599 107.329 120.579 107.555C120.369 109.969 117.878 114.448 114.755 119.035Z" fill="#20353D"/>
<path d="M100.83 129.094C100.792 129.133 99.9778 128.398 99.0115 127.452C98.0448 126.507 97.2924 125.709 97.3307 125.67C97.3686 125.631 98.183 126.366 99.1497 127.311C100.116 128.257 100.868 129.055 100.83 129.094Z" fill="#17282F"/>
<path d="M67.1274 128.709C67.0806 128.689 67.3919 127.928 67.9603 127.094C68.5257 126.258 69.1177 125.688 69.1546 125.723C69.1972 125.762 68.6795 126.383 68.1235 127.205C67.5647 128.025 67.179 128.735 67.1274 128.709Z" fill="#17282F"/>
<path d="M45.3074 135.916C45.2613 135.878 46.1221 135.33 46.8565 133.95C47.2227 133.269 47.5242 132.379 47.6155 131.361C47.7097 130.346 47.562 129.198 47.0645 128.131C46.5476 127.073 45.7473 126.235 44.8991 125.67C44.0492 125.1 43.1674 124.774 42.4073 124.63C40.8715 124.332 39.9044 124.656 39.9031 124.596C39.9018 124.589 39.9599 124.571 40.0723 124.545C40.1857 124.523 40.3503 124.468 40.5698 124.448C41.0052 124.38 41.6523 124.36 42.433 124.493C43.2127 124.623 44.1212 124.942 44.9998 125.519C45.8763 126.091 46.7075 126.95 47.2423 128.046C47.7579 129.15 47.9027 130.336 47.7963 131.377C47.6926 132.423 47.3689 133.329 46.9793 134.016C46.5913 134.706 46.168 135.196 45.8416 135.491C45.6878 135.649 45.5414 135.743 45.4536 135.817C45.3615 135.888 45.3114 135.922 45.3074 135.916Z" fill="#17282F"/>
<path d="M26.4696 131.964C26.4152 131.967 26.3325 131.153 26.2845 130.147C26.2367 129.139 26.2417 128.321 26.2961 128.318C26.3504 128.316 26.4334 129.13 26.4812 130.137C26.5292 131.143 26.524 131.962 26.4696 131.964Z" fill="#17282F"/>
<path d="M27.8383 131.967C27.7841 131.974 27.636 131.162 27.507 130.153C27.378 129.145 27.3174 128.321 27.3712 128.315C27.4253 128.308 27.5736 129.12 27.7026 130.128C27.8314 131.137 27.8922 131.96 27.8383 131.967Z" fill="#17282F"/>
<path d="M49.1127 96.9788C49.1127 97.0332 42.8407 97.0776 35.1052 97.0776C27.3669 97.0776 21.0959 97.0332 21.0959 96.9788C21.0959 96.9249 27.3669 96.8805 35.1052 96.8805C42.8407 96.8805 49.1127 96.9249 49.1127 96.9788Z" fill="#17282F"/>
<path d="M16.2736 140.682C16.2684 140.687 16.2115 140.629 16.1074 140.515C16.0063 140.399 15.8452 140.237 15.6655 140.006C15.2913 139.554 14.7897 138.866 14.2686 137.954C13.222 136.149 12.1849 133.329 12.1976 130.102C12.2115 126.873 13.2722 124.061 14.3339 122.265C14.8625 121.358 15.3697 120.673 15.7474 120.226C15.9293 119.996 16.0916 119.835 16.1936 119.72C16.2986 119.607 16.356 119.549 16.3612 119.554C16.3662 119.559 16.3187 119.625 16.2235 119.746C16.1315 119.869 15.9792 120.038 15.8076 120.273C15.45 120.734 14.9638 121.426 14.455 122.334C13.4335 124.133 12.4086 126.916 12.3947 130.102C12.3821 133.288 13.3838 136.079 14.3904 137.887C14.8915 138.799 15.372 139.495 15.7259 139.958C15.8956 140.196 16.0464 140.365 16.1376 140.49C16.2318 140.611 16.2786 140.678 16.2736 140.682Z" fill="#074F62"/>
<path d="M69.157 134.524C69.157 134.524 69.5904 144.639 69.5999 145.127L71.7487 146.752L76.9042 145.47L76.456 134.293L69.157 134.524Z" fill="#F8A58D"/>
<path d="M83.3423 45.5375L88.7335 48.4183L97.7554 41.8348L100.379 46.3556C100.379 46.3556 94.8893 51.6496 92.9416 53.4584C90.9935 55.2667 89.7116 56.2158 88.2901 55.9368C86.8686 55.6573 78.9326 51.2561 78.9326 51.2561C78.9326 51.2561 81.2428 45.6425 83.3423 45.5375Z" fill="#F8A58D"/>
<path d="M88.7721 50.4253C88.7891 50.4249 88.8056 50.4565 88.8212 50.5152L88.8331 50.5634L88.834 50.57L88.8349 50.5733L88.8354 50.5752C88.781 50.578 88.9569 50.5691 88.7134 50.5757V50.5776V50.578L88.713 50.5776L88.7101 50.5634L88.7049 50.5331C88.6974 50.484 88.6907 50.4367 88.6846 50.3922C88.6586 50.1837 88.6397 49.8948 88.634 49.5766C88.6231 48.9383 88.6662 48.4206 88.7333 48.4187C88.8018 48.4168 88.8695 48.9336 88.8803 49.5719C88.886 49.891 88.877 50.1799 88.8586 50.3894C88.8534 50.4343 88.8482 50.4816 88.8425 50.5308L88.8378 50.5615L88.8354 50.5757V50.5762V50.5771C88.5919 50.5837 88.7678 50.5747 88.7134 50.5776L88.7139 50.5757L88.7144 50.5719L88.7153 50.5653L88.7253 50.5166C88.739 50.4579 88.7546 50.4253 88.7721 50.4253Z" fill="#393939"/>
<path d="M98.8801 47.6028C99.058 47.6576 100.737 45.8484 100.737 45.8484C100.737 45.8484 103.884 45.7893 104.637 45.3599C105.389 44.9305 106.511 43.3922 106.511 43.3922L104.991 38.7683C104.991 38.7683 101.805 39.0062 100.804 39.2871C99.8019 39.568 97.4004 42.0771 97.4004 42.0771L96.3726 43.6816C96.3726 43.6816 96.0655 46.7355 98.8801 47.6028Z" fill="#F8A58D"/>
<path d="M104.195 45.6301C104.195 45.6301 104.604 45.6117 105.345 45.485C106.103 45.3554 106.885 45.2901 106.861 44.5165C106.847 44.062 106.573 43.8578 106.573 43.8578C106.573 43.8578 107.13 43.6232 107.127 43.2028C107.123 42.7824 106.801 42.581 106.801 42.581C106.801 42.581 107.57 42.223 107.595 41.5992C107.625 40.8171 106.923 40.4795 106.923 40.4795C106.923 40.4795 109.295 39.8051 109.478 39.7294C110.151 39.4533 111.434 38.8456 110.902 38.3411C110.707 38.1562 110.63 37.9523 109.278 38.1179C108.049 38.2682 106.114 38.7227 106.114 38.7227C106.114 38.7227 104.455 38.8002 103.586 38.8905C102.717 38.9813 100.803 39.2868 100.372 39.4859C99.256 40.0014 98.2817 41.4697 98.2817 41.4697L100.737 45.8481C100.737 45.8481 103.798 45.6576 104.195 45.6301Z" fill="#F8A58D"/>
<path d="M106.386 43.8607C106.386 43.846 106.132 43.8337 105.72 43.8257C105.505 43.8228 105.262 43.8195 104.998 43.8162C104.863 43.8158 104.717 43.8129 104.565 43.8375C104.414 43.8611 104.25 43.9212 104.13 44.0451C104.009 44.1618 103.938 44.3477 103.987 44.5117C104.033 44.6767 104.16 44.7845 104.276 44.8602C104.395 44.9363 104.519 44.9864 104.631 45.0304C104.744 45.0753 104.85 45.115 104.947 45.1491C105.142 45.2172 105.302 45.2654 105.413 45.2947C105.524 45.3245 105.587 45.3358 105.59 45.3292C105.594 45.3141 105.354 45.2328 104.973 45.0796C104.787 44.9983 104.549 44.9183 104.329 44.7789C104.222 44.7075 104.119 44.611 104.087 44.4853C104.05 44.3604 104.103 44.22 104.205 44.1193C104.305 44.0153 104.443 43.9633 104.582 43.9391C104.722 43.9146 104.863 43.915 104.999 43.9132C105.262 43.9084 105.505 43.9037 105.72 43.8999C106.132 43.889 106.386 43.8753 106.386 43.8607Z" fill="#393939"/>
<path d="M103.803 40.6327C103.816 40.6559 104.133 40.4833 104.438 40.1641C104.745 39.8469 104.905 39.5235 104.881 39.5107C104.855 39.4946 104.659 39.7845 104.363 40.0918C104.068 40.4001 103.786 40.6067 103.803 40.6327Z" fill="#393939"/>
<path d="M101.826 39.5385C102.452 39.6695 103.016 40.026 103.467 40.479C103.918 40.9325 104.263 41.4806 104.558 42.0481C104.793 42.5025 104.995 43.0643 104.736 43.5055C104.469 43.9595 103.804 44.0432 103.332 43.8077C102.861 43.5722 102.551 43.1064 102.308 42.6387C102.065 42.171 101.863 41.6726 101.514 41.2777" fill="#F8A58D"/>
<path d="M101.514 41.2781C101.507 41.2843 101.601 41.3902 101.736 41.6058C101.873 41.8205 102.03 42.1525 102.229 42.5653C102.33 42.771 102.448 42.9952 102.607 43.2165C102.766 43.4359 102.969 43.6587 103.241 43.8138C103.512 43.9708 103.859 44.0322 104.194 43.9495C104.361 43.9102 104.523 43.8242 104.653 43.6984C104.779 43.5688 104.867 43.3981 104.894 43.216C104.952 42.8472 104.825 42.5029 104.691 42.2026C104.546 41.9028 104.389 41.6271 104.226 41.3699C103.9 40.8558 103.528 40.4411 103.164 40.1574C102.801 39.8708 102.458 39.7105 102.214 39.6296C102.092 39.588 101.994 39.5649 101.928 39.5516C101.862 39.5398 101.827 39.5351 101.826 39.5389C101.824 39.5483 101.963 39.5748 102.2 39.668C102.436 39.7597 102.767 39.9271 103.117 40.2151C103.468 40.5012 103.827 40.9121 104.144 41.4219C104.302 41.6758 104.457 41.9534 104.597 42.2461C104.728 42.5379 104.843 42.8689 104.79 43.1985C104.766 43.3617 104.687 43.5106 104.578 43.6246C104.464 43.7348 104.321 43.8133 104.168 43.8492C103.863 43.9263 103.54 43.8729 103.289 43.7291C103.032 43.5868 102.835 43.3763 102.678 43.165C102.52 42.9517 102.4 42.7337 102.295 42.5322C102.089 42.1255 101.919 41.7936 101.77 41.5832C101.697 41.4777 101.633 41.4006 101.588 41.35C101.542 41.3004 101.516 41.2758 101.514 41.2781Z" fill="#393939"/>
<path d="M106.318 43.8603C105.358 43.8476 104.366 43.9294 103.41 44.0126C103.132 44.0367 102.838 44.0622 102.586 43.9407C102.385 43.8438 102.311 43.3322 102.258 43.1152L105.816 42.5606" fill="#F8A58D"/>
<path d="M105.816 42.5606C105.814 42.5544 105.717 42.5629 105.539 42.5847C105.344 42.6107 105.091 42.6447 104.785 42.6859C104.145 42.7762 103.255 42.9086 102.25 43.0636L102.194 43.0722L102.207 43.127C102.244 43.2892 102.276 43.4684 102.335 43.6452C102.359 43.7152 102.386 43.7842 102.426 43.8495L102.5 43.9431L102.605 44.006C102.742 44.0632 102.887 44.0811 103.025 44.0835C103.302 44.083 103.556 44.0452 103.803 44.0272C104.295 43.9833 104.738 43.9473 105.111 43.9242C105.483 43.9001 105.785 43.8877 105.994 43.8802C106.202 43.8721 106.318 43.8684 106.318 43.8603C106.318 43.8542 106.203 43.8443 105.993 43.8391C105.784 43.8343 105.481 43.8353 105.107 43.8499C104.733 43.8636 104.288 43.892 103.795 43.9308C103.549 43.9459 103.288 43.9818 103.027 43.9804C102.897 43.9776 102.765 43.9601 102.645 43.9095C102.534 43.8726 102.481 43.7393 102.435 43.6116C102.378 43.4443 102.348 43.2707 102.309 43.1029L102.266 43.1662C103.27 43.0083 104.159 42.8636 104.795 42.7549C105.1 42.701 105.351 42.6566 105.545 42.622C105.721 42.5889 105.817 42.5672 105.816 42.5606Z" fill="#393939"/>
<path d="M106.851 42.3625C105.616 42.5989 104.381 42.8353 103.147 43.0718C102.885 43.1219 102.616 43.1725 102.352 43.1337C102.088 43.095 101.825 42.9498 101.716 42.7062C101.566 42.371 101.762 41.9629 102.062 41.7491C102.362 41.5359 102.738 41.4682 103.099 41.3973C104.221 41.176 105.326 40.8677 106.401 40.4761" fill="#F8A58D"/>
<path d="M106.4 40.4758C106.399 40.4725 106.362 40.482 106.292 40.5037C106.211 40.5293 106.109 40.5614 105.986 40.6007C105.721 40.6844 105.337 40.805 104.857 40.9359C104.378 41.0674 103.803 41.2088 103.158 41.3351C102.84 41.4013 102.485 41.4486 102.157 41.6287C101.994 41.7162 101.844 41.85 101.745 42.0165C101.644 42.1815 101.584 42.3868 101.624 42.5915C101.664 42.7977 101.81 42.9656 101.98 43.0602C102.15 43.1585 102.346 43.1978 102.53 43.1982C102.902 43.1949 103.236 43.0966 103.559 43.0417C104.202 42.9145 104.782 42.7996 105.275 42.7017C105.752 42.6038 106.142 42.523 106.43 42.4638C106.557 42.4355 106.66 42.4123 106.743 42.3939C106.814 42.3768 106.851 42.366 106.851 42.3622C106.85 42.3584 106.812 42.3627 106.739 42.3731C106.655 42.3863 106.55 42.4029 106.422 42.4237C106.133 42.4747 105.74 42.5442 105.261 42.6289C104.767 42.7202 104.185 42.8275 103.541 42.9467C103.217 42.9992 102.877 43.0952 102.531 43.0952C102.358 43.0942 102.184 43.0573 102.033 42.9694C101.882 42.8842 101.76 42.7424 101.728 42.5712C101.693 42.4 101.744 42.2198 101.834 42.0709C101.925 41.92 102.055 41.8013 102.207 41.7181C102.511 41.5493 102.857 41.4982 103.177 41.4306C103.824 41.2982 104.4 41.1487 104.878 41.0078C105.356 40.8669 105.738 40.735 106 40.6394C106.13 40.5907 106.231 40.552 106.299 40.5236C106.367 40.4957 106.402 40.4791 106.4 40.4758Z" fill="#393939"/>
<path d="M99.4269 43.277C99.4179 43.2841 99.4803 43.3843 99.6223 43.5092C99.7638 43.6335 99.9928 43.7725 100.273 43.8477C100.554 43.9219 100.822 43.9148 101.007 43.877C101.192 43.8397 101.296 43.7838 101.292 43.7725C101.286 43.7399 100.838 43.895 100.3 43.7465C99.7605 43.6084 99.4482 43.2515 99.4269 43.277Z" fill="#393939"/>
<path d="M79.3928 69.4664C79.3928 69.4664 88.3604 71.1267 89.0077 71.2988C89.6555 71.4714 92.2023 72.6792 92.3314 73.4561C92.4611 74.2321 92.3314 76.5185 92.3314 76.5185C92.3314 76.5185 91.8715 76.8935 91.5838 76.145C91.2956 75.3968 91.3387 73.9172 91.3387 73.9172L89.9143 73.3696L90.6913 74.7499L90.8205 77.985C90.8205 77.985 89.8259 77.8942 89.6323 77.1201C89.4393 76.3459 89.443 75.4834 89.443 75.4834L88.4034 74.6033L89.1804 75.6555L89.443 77.985C89.443 77.985 88.6845 78.2299 88.446 77.7131C88.2075 77.1962 88.1877 75.6555 88.1877 75.6555L85.2576 74.6327L83.3166 75.7127L81.209 74.5589C80.6113 74.2312 80.1911 73.6547 80.0638 72.9856L79.3928 69.4664Z" fill="#F8A58D"/>
<path d="M61.4407 24.8063L61.7351 40.4849C61.7833 43.0451 63.8039 45.1314 66.3624 45.2639C69.1789 45.4095 71.534 43.1448 71.4943 40.3264C71.4734 38.8345 71.4484 37.6121 71.4484 37.6121C71.4484 37.6121 75.2628 37.22 75.5055 33.4412C75.6456 31.2588 75.5254 26.2836 75.3986 22.4702C75.3134 19.892 73.2654 17.8104 70.6879 17.6775L68.4019 17.5593C64.4536 17.5853 61.3054 20.8629 61.4407 24.8063Z" fill="#F8A58D"/>
<path d="M71.4484 37.6122C71.4484 37.6122 69.0559 37.6288 66.5972 35.9022C66.5972 35.9022 67.6732 38.7159 71.4664 38.5707L71.4484 37.6122Z" fill="#393939"/>
<path d="M74.5015 26.0441C74.431 26.1112 74.0373 25.7873 73.4557 25.7585C72.8751 25.7221 72.4331 25.9987 72.374 25.9245C72.3442 25.8914 72.4194 25.7675 72.612 25.6422C72.8018 25.5169 73.1207 25.4025 73.4827 25.4223C73.8447 25.4431 74.1428 25.5921 74.3108 25.7377C74.4821 25.8838 74.5365 26.0143 74.5015 26.0441Z" fill="#17282F"/>
<path d="M68.9009 27.2875C68.8962 27.5735 68.6506 27.8052 68.3515 27.8057C68.0539 27.8061 67.8154 27.5759 67.8201 27.2898C67.8249 27.0042 68.0709 26.7721 68.3686 26.7721C68.6672 26.7711 68.9057 27.0024 68.9009 27.2875Z" fill="#17282F"/>
<path d="M74.1961 27.2875C74.1914 27.5735 73.9458 27.8052 73.6467 27.8057C73.3486 27.8061 73.1106 27.5759 73.1153 27.2898C73.1196 27.0042 73.3656 26.7721 73.6637 26.7721C73.9623 26.7711 74.2008 27.0024 74.1961 27.2875Z" fill="#17282F"/>
<path d="M68.8819 25.8327C68.8114 25.8998 68.4168 25.5759 67.8362 25.5476C67.2556 25.5107 66.8136 25.7873 66.754 25.7126C66.7247 25.6795 66.7989 25.5561 66.9925 25.4308C67.1822 25.3055 67.5007 25.1911 67.8632 25.2109C68.2252 25.2317 68.5228 25.3806 68.6912 25.5263C68.8621 25.6724 68.9165 25.8029 68.8819 25.8327Z" fill="#17282F"/>
<path d="M70.7164 30.459C70.7154 30.4259 71.0798 30.3824 71.6694 30.338C71.8189 30.3299 71.9609 30.3082 71.9912 30.2079C72.0319 30.1025 71.9779 29.9393 71.915 29.7629C71.7938 29.3969 71.667 29.0129 71.5341 28.6105C71.0079 26.97 70.635 25.6247 70.7012 25.6039C70.7675 25.5835 71.2478 26.8963 71.7744 28.5362C71.9003 28.9406 72.0215 29.326 72.136 29.6948C72.1833 29.866 72.2704 30.0627 72.1828 30.2812C72.1374 30.39 72.0243 30.4647 71.9273 30.4855C71.8308 30.5096 71.7475 30.5068 71.6737 30.5072C71.0826 30.5087 70.7168 30.4926 70.7164 30.459Z" fill="#17282F"/>
<path d="M68.9845 30.7729C69.0791 30.7724 69.0479 31.4031 69.5646 31.8783C70.0809 32.3554 70.7571 32.3194 70.7575 32.4078C70.7642 32.4476 70.6014 32.5227 70.317 32.5156C70.0378 32.5109 69.636 32.4003 69.3195 32.1095C69.0043 31.8178 68.8813 31.4442 68.8733 31.1847C68.8628 30.9199 68.9414 30.7672 68.9845 30.7729Z" fill="#17282F"/>
<path d="M68.9545 23.7239C68.8892 23.879 68.3124 23.774 67.6263 23.8209C66.9387 23.854 66.378 24.0251 66.2951 23.8785C66.2582 23.8086 66.3619 23.6653 66.5923 23.5239C66.8204 23.3826 67.18 23.2554 67.5917 23.2313C68.0034 23.2076 68.3753 23.2923 68.6185 23.4057C68.8637 23.5197 68.9834 23.6502 68.9545 23.7239Z" fill="#17282F"/>
<path d="M74.3234 23.9421C74.2141 24.0688 73.8209 23.9114 73.3396 23.8797C72.8593 23.8315 72.4458 23.9227 72.3587 23.7795C72.3208 23.7104 72.3923 23.5814 72.5768 23.466C72.759 23.3506 73.0581 23.2641 73.3884 23.2911C73.7187 23.319 73.9993 23.4532 74.1602 23.597C74.3229 23.7412 74.3717 23.8802 74.3234 23.9421Z" fill="#17282F"/>
<path d="M62.5699 27.7101C62.5064 27.6788 60.0099 26.8073 59.9588 29.3968C59.9072 31.9859 62.5192 31.5031 62.5249 31.4293C62.5311 31.3551 62.5699 27.7101 62.5699 27.7101Z" fill="#F8A58D"/>
<path d="M61.7528 30.4325C61.7415 30.424 61.7069 30.4633 61.6298 30.4964C61.555 30.529 61.4268 30.5503 61.2924 30.4969C61.0208 30.3914 60.7989 29.9526 60.7956 29.4853C60.7937 29.2494 60.8471 29.0262 60.9347 28.8422C61.0175 28.654 61.1424 28.5244 61.2811 28.5027C61.4188 28.4734 61.5148 28.558 61.5451 28.6313C61.5782 28.7046 61.5607 28.7557 61.5744 28.7604C61.5815 28.767 61.6307 28.7183 61.6123 28.611C61.6024 28.5594 61.5735 28.4975 61.5134 28.4469C61.4524 28.3949 61.361 28.3674 61.265 28.376C61.0648 28.3859 60.8817 28.5656 60.7856 28.768C60.6787 28.9708 60.6124 29.222 60.6148 29.4868C60.621 30.0088 60.8788 30.5021 61.2512 30.6179C61.4325 30.669 61.5853 30.617 61.6653 30.5574C61.7467 30.495 61.7618 30.4373 61.7528 30.4325Z" fill="#393939"/>
<path d="M61.1352 27.5485C61.5345 27.4733 62.198 27.8724 62.347 28.2502C62.4966 28.628 62.5117 29.0485 62.6603 29.4263C62.8089 29.8046 63.1709 30.1583 63.5707 30.085C63.8461 30.0349 64.0543 29.7899 64.14 29.5232C64.2261 29.2565 64.2119 28.969 64.1911 28.69C64.1012 27.4747 63.909 26.2646 63.9232 25.0459C63.9379 23.8278 64.1769 22.5737 64.8692 21.5707C65.5614 20.5677 66.7743 19.8669 67.9833 20.0272C68.7834 20.1336 69.4994 20.5909 70.292 20.7436C71.2322 20.9252 72.251 20.6433 72.9627 20.0035C73.0545 19.9217 73.4719 19.6768 73.4719 19.6768C73.4752 19.6139 73.444 19.071 73.241 18.8634C71.7324 17.317 68.8984 16.7605 66.7785 17.1785C64.6581 17.597 62.6196 18.9722 61.6178 20.8855C60.6156 22.7992 60.7415 25.5392 61.1352 27.5485Z" fill="#17282F"/>
<path d="M72.284 19.2611C70.8507 19.3146 68.118 19.8432 66.9847 20.7219C66.8503 20.8259 66.7055 20.999 66.795 21.1432C66.8626 21.252 67.0164 21.2553 67.1447 21.252C68.0016 21.2297 70.211 21.6071 71.0348 21.845C71.8582 22.0824 72.708 22.3075 73.5612 22.2247C74.4144 22.1424 75.2822 21.6889 75.6258 20.9044L75.9896 21.0396C75.2193 19.8305 73.7174 19.2077 72.284 19.2611Z" fill="#17282F"/>
<path d="M75.2526 21.0014C75.2526 21.0014 74.1529 19.8688 72.4371 19.7137C69.1621 19.4187 63.7842 20.3994 60.9356 26.0249C60.9356 26.0249 60.355 24.1773 60.3606 23.0244C60.3644 22.2546 60.8476 17.6713 65.5757 16.2517C65.5757 16.2517 72.7016 13.5728 75.2526 21.0014Z" fill="#074F62"/>
<path d="M64.8174 21.6475C64.8344 21.6215 64.8515 21.5959 64.869 21.5709C64.8827 21.551 64.8964 21.5316 64.9106 21.5118C65.9786 20.821 67.1025 20.3614 68.1989 20.0744C67.0835 20.4068 65.9195 20.9141 64.8174 21.6475Z" fill="#BA7562"/>
<path d="M60.9357 26.0249C60.9357 26.0249 60.9234 25.9847 60.9021 25.9128C60.9234 25.9847 60.9357 26.0249 60.9357 26.0249C61.9919 23.9395 63.3954 22.4924 64.9105 21.5117C64.8963 21.5315 64.8826 21.5509 64.8689 21.5708C64.8514 21.5958 64.8344 21.6214 64.8173 21.6474C63.3163 22.6452 61.9299 24.0619 60.9357 26.0249Z" fill="#0F191D"/>
<path d="M60.9355 26.0249C60.9355 26.0249 60.9232 25.9847 60.9019 25.9128C60.778 25.4976 60.3597 24.0213 60.3606 23.0381C60.3606 23.0334 60.3606 23.0291 60.3606 23.0244C60.3644 22.2546 60.8475 17.6713 65.5757 16.2517C65.5757 16.2517 66.8268 15.7812 68.4679 15.7812C70.744 15.7812 73.77 16.6854 75.2526 21.0014C75.2526 21.0014 74.1278 19.6513 72.0987 19.552C71.9605 19.5454 71.8157 19.5416 71.6667 19.5416C70.6829 19.5416 69.4729 19.6939 68.1986 20.0741C67.1022 20.3611 65.9784 20.8208 64.9104 21.5117C63.3952 22.4924 61.9917 23.9395 60.9355 26.0249Z" fill="#20353D"/>
<path d="M61.3814 25.2228C62.8081 22.8518 64.9332 21.227 67.2249 19.8121C69.5166 18.3967 73.3012 17.0041 75.9085 16.3259C76.6912 16.1221 77.5065 15.9448 78.3034 16.0862C79.0993 16.2281 79.8768 16.7619 80.0708 17.5465C80.314 18.5287 78.5641 20.0339 77.7427 20.625C76.9217 21.2161 75.3771 22.0138 75.3771 22.0138C75.3771 22.0138 75.2792 20.2552 72.3662 19.8731C68.3951 19.3524 61.2603 25.324 61.3814 25.2228Z" fill="#074F62"/>
<path d="M66.7826 17.9658C66.8115 18.0239 67.9254 17.3374 69.4808 17.0442C71.0329 16.7336 72.3233 16.9535 72.328 16.8887C72.3318 16.866 72.0166 16.7809 71.4923 16.7346C70.9695 16.6877 70.2346 16.6982 69.4429 16.8509C68.6522 17.0055 67.9675 17.2712 67.5 17.5104C67.031 17.7492 66.7708 17.9459 66.7826 17.9658Z" fill="white"/>
<path d="M76.9679 144.854L76.9991 145.298C76.9991 145.298 85.0454 147.979 85.2247 149.403L69.6447 150L69.5505 145.021C71.9298 145.961 74.3611 145.984 76.9679 144.854Z" fill="#074F62"/>
<path d="M79.3853 149.626L85.225 149.403C85.1999 149.207 85.0267 148.988 84.7461 148.755C84.9534 148.868 85.2576 149.089 85.225 149.403L79.3853 149.626Z" fill="white"/>
<path d="M69.645 150L69.6223 148.803L84.5625 148.669C84.5625 148.669 84.642 148.698 84.7461 148.755C85.0267 148.988 85.1999 149.207 85.225 149.403L79.3853 149.626L73.3487 149.858L69.645 150Z" fill="#A6B7B9"/>
<path d="M77.0568 145.338C77.0587 145.411 76.6801 145.458 76.3205 145.707C75.9538 145.947 75.7806 146.27 75.7087 146.244C75.6377 146.232 75.7238 145.792 76.1658 145.498C76.604 145.2 77.0691 145.27 77.0568 145.338Z" fill="#17282F"/>
<path d="M78.7308 145.923C78.7526 145.993 78.4308 146.129 78.1913 146.448C77.942 146.759 77.8975 147.095 77.8218 147.095C77.7508 147.109 77.6718 146.684 77.9774 146.294C78.2789 145.901 78.7246 145.853 78.7308 145.923Z" fill="#17282F"/>
<path d="M79.7741 147.762C79.706 147.781 79.5777 147.421 79.7486 147.014C79.9161 146.606 80.2653 146.434 80.3013 146.494C80.3476 146.552 80.13 146.775 79.9951 147.112C79.8522 147.444 79.8494 147.753 79.7741 147.762Z" fill="#17282F"/>
<path d="M78.2197 110.045L75.5793 101.25L72.0606 90.0521L72.2541 84.2885L66.3695 80.2359C62.5238 80.3026 51.3147 79.6396 51.3147 79.6396C51.3147 79.6396 51.6015 85.4845 52.1802 89.6946C52.2947 90.5288 52.6056 91.3232 53.0826 92.0183L58.2442 99.5425L67.1228 116.078C67.1228 116.078 67.7143 121.987 67.9603 127.094C68.2367 132.817 69.1571 143.186 69.1571 143.186L78.2902 143.402L78.8609 120.48C79.0956 117.034 79.3497 113.309 78.2197 110.045Z" fill="#17282F"/>
<path d="M83.8745 109.767C84.926 110.621 85.8676 122.191 84.1324 121.348L86.1918 123.293L91.7002 122.342L92.4612 110.186L83.8745 109.767Z" fill="#F8A58D"/>
<path d="M68.306 75.1834C68.306 75.1834 91.124 81.3882 93.4891 86.2953C93.4891 86.2953 94.9053 88.3344 94.7667 91.629C94.6285 94.9246 92.748 118.739 92.748 118.739L84.1311 118.169L83.303 109.389L83.1568 96.0973L83.7587 94.5822C83.7587 94.5822 82.7409 94.8475 81.7599 94.5595C80.779 94.2711 65.9102 89.773 65.9102 89.773L60.1064 80.6358L68.306 75.1834Z" fill="#17282F"/>
<path d="M91.8342 121.681L91.8185 122.165C91.8185 122.165 99.9012 125.758 99.9315 127.317L83.6445 126.636L84.0926 121.229C86.4671 122.451 88.9964 122.683 91.8342 121.681Z" fill="#074F62"/>
<path d="M83.7244 125.67L83.7523 125.336L83.7244 125.67Z" fill="white"/>
<path d="M99.9315 127.317L99.1204 127.283L99.9315 127.317C99.9272 127.103 99.7706 126.85 99.5042 126.573C99.7072 126.713 100 126.979 99.9315 127.317ZM98.8271 127.271L83.6445 126.636L83.7245 125.67L83.6445 126.636L98.8271 127.271Z" fill="#9FABAD"/>
<path d="M99.9315 127.317L99.1204 127.283L98.8271 127.271L83.6445 126.636L83.7245 125.67L83.7524 125.336L99.3225 126.465C99.3225 126.465 99.402 126.503 99.5042 126.573C99.7706 126.85 99.9272 127.103 99.9315 127.317Z" fill="#A6B7B9"/>
<path d="M91.8736 122.212C91.8679 122.292 91.4685 122.311 91.0663 122.551C90.6579 122.779 90.4421 123.115 90.3702 123.081C90.2973 123.062 90.436 122.592 90.9276 122.311C91.4169 122.026 91.8939 122.141 91.8736 122.212Z" fill="#17282F"/>
<path d="M93.5525 122.99C93.5671 123.068 93.2174 123.189 92.933 123.513C92.6392 123.83 92.5559 124.19 92.4769 124.183C92.4017 124.193 92.3662 123.725 92.7272 123.328C93.0845 122.928 93.5539 122.914 93.5525 122.99Z" fill="#17282F"/>
<path d="M94.4368 125.074C94.3639 125.088 94.2697 124.687 94.4921 124.26C94.7117 123.831 95.094 123.675 95.1248 123.743C95.1669 123.81 94.9156 124.034 94.7387 124.387C94.5527 124.735 94.5163 125.069 94.4368 125.074Z" fill="#17282F"/>
<path d="M87.4015 90.1671C87.3882 90.1477 87.0882 90.3175 86.6538 90.6641C86.2195 91.0098 85.6606 91.5451 85.1467 92.2227C84.6347 92.9018 84.2718 93.5851 84.0574 94.0968C83.8426 94.6089 83.7607 94.9437 83.7834 94.9513C83.8435 94.9768 84.2902 93.6735 85.3062 92.3428C86.3094 91.0036 87.4427 90.2182 87.4015 90.1671Z" fill="#074F62"/>
<path d="M85.552 88.3606C85.5312 88.3487 85.3131 88.6646 85.0334 89.2174C84.7533 89.7693 84.4263 90.5661 84.1897 91.484C83.9545 92.4019 83.8575 93.2578 83.8372 93.8763C83.8159 94.4958 83.8551 94.8774 83.8793 94.877C83.9105 94.8765 83.9209 94.4953 83.9782 93.8858C84.034 93.2758 84.1518 92.4373 84.3828 91.5332C84.616 90.6299 84.9165 89.8383 85.1612 89.277C85.4049 88.7148 85.5795 88.3757 85.552 88.3606Z" fill="#074F62"/>
<path d="M70.2678 84.9843C70.3322 84.9626 71.3628 87.7994 72.5694 91.3206C73.777 94.8431 74.7031 97.7154 74.6383 97.7372C74.5744 97.7594 73.5437 94.923 72.3366 91.4005C71.1295 87.8793 70.2035 85.0065 70.2678 84.9843Z" fill="#074F62"/>
<path d="M73.7466 43.1374L77.4692 41.645L87.1839 46.9135L83.2209 55.9849L74.6717 51.7435L73.7466 43.1374Z" fill="#074F62"/>
<path d="M77.4694 41.6448L71.5658 39.4119C71.5658 39.4119 70.2749 42.1409 67.4499 41.3039C64.6249 40.4669 61.5094 37.9483 61.5094 37.9483C61.5094 37.9483 56.1372 40.0763 54.5018 41.049C52.8665 42.0217 51.9778 67.1718 51.9778 67.1718L51.5344 76.9038C51.5344 76.9038 51.454 77.4651 51.2718 78.7415C51.0892 80.0183 51.0967 81.3892 51.0967 81.3892C61.1048 83.6363 70.9979 81.2591 76.3039 78.3149C76.3039 78.3149 77.0033 77.765 76.699 76.5156C76.3948 75.2667 75.7493 75.0416 75.7493 75.0416L75.8804 64.0441L76.8651 52.7922L77.4694 41.6448Z" fill="#074F62"/>
<path d="M82.7585 70.0928L69.4674 64.595L61.2361 46.3751L53.9087 49.4499C53.9087 49.4499 61.777 69.2071 64.8277 70.8495C67.8779 72.4923 80.465 73.2446 80.465 73.2446L82.7585 70.0928Z" fill="#F8A58D"/>
<path d="M54.5015 41.0489C54.5015 41.0489 51.7338 42.433 51.7371 47.7313C51.7404 52.3325 53.0942 59.6655 53.0942 59.6655L66.1402 55.1291C66.1402 55.1291 62.8666 47.5326 62.1053 45.765C61.1456 43.5353 59.047 39.4292 54.5015 41.0489Z" fill="#074F62"/>
<path d="M54.5894 59.1456C54.5865 59.1389 54.6608 59.1058 54.8056 59.0482C54.9722 58.9848 55.1832 58.9044 55.4444 58.8051C56.0312 58.5918 56.8408 58.2982 57.8435 57.9336C59.9209 57.2001 62.7946 56.1848 66.1013 55.0173L66.027 55.1662C65.6196 53.9273 65.1696 52.606 64.6741 51.255C63.8986 49.135 63.0922 47.1404 62.2627 45.3708C61.8506 44.4856 61.4394 43.6528 60.9316 42.9581C60.4244 42.2663 59.8437 41.6908 59.168 41.4109C57.8256 40.8259 56.5896 40.745 55.7837 40.8387C55.3768 40.8902 55.0744 40.9947 54.8799 41.0865C54.6911 41.1877 54.596 41.2543 54.5894 41.2449C54.5865 41.2416 54.6074 41.2226 54.6518 41.1872C54.6973 41.1555 54.7597 41.0954 54.8563 41.0425C55.0488 40.9342 55.3555 40.8112 55.7705 40.7436C56.5948 40.6197 57.8473 40.6713 59.2395 41.2524C59.9502 41.5343 60.5739 42.1363 61.0963 42.8376C61.6253 43.5464 62.0493 44.3891 62.4681 45.2739C63.3123 47.0463 64.1285 49.0456 64.906 51.1708C65.4024 52.5247 65.8505 53.8497 66.2537 55.0924L66.2901 55.204L66.1794 55.2419C62.8618 56.3768 59.9781 57.3637 57.8932 58.0768C56.8811 58.4135 56.0638 58.685 55.4714 58.8822C55.205 58.9663 54.9892 59.0344 54.8193 59.0879C54.6703 59.1328 54.5917 59.1527 54.5894 59.1456Z" fill="#17282F"/>
<path d="M75.1566 75.403C75.167 75.4163 74.9361 75.5997 74.5078 75.9213C74.2963 76.0845 74.0313 76.2779 73.7077 76.4765C73.3859 76.6789 73.0296 76.9271 72.6042 77.148C72.1873 77.3835 71.7273 77.6369 71.2125 77.8668C70.7085 78.1207 70.145 78.3335 69.5568 78.5695C68.3662 79.0031 67.0228 79.3914 65.5819 79.6519C64.1377 79.8973 62.7423 79.9886 61.4746 79.9858C60.841 79.964 60.2386 79.956 59.6783 79.8879C59.1157 79.8467 58.5971 79.7654 58.1248 79.686C57.6497 79.6226 57.23 79.5101 56.8585 79.4297C56.4861 79.3521 56.1719 79.2608 55.9169 79.179C55.4049 79.0225 55.1257 78.9289 55.1304 78.9128C55.1356 78.8967 55.4248 78.9591 55.9415 79.0863C56.1994 79.154 56.5155 79.2315 56.8884 79.2949C57.2598 79.3625 57.6786 79.4618 58.1518 79.5138C58.6221 79.5815 59.1375 79.6524 59.6954 79.6845C60.2514 79.7432 60.8485 79.7437 61.476 79.7593C62.7309 79.7493 64.1103 79.6519 65.5393 79.4093C66.9651 79.1516 68.2952 78.7742 69.4782 78.3567C70.0631 78.1287 70.6243 77.9254 71.1268 77.6809C71.6407 77.461 72.1012 77.2194 72.5204 76.9957C72.9477 76.7862 73.3073 76.5502 73.6339 76.3601C73.9632 76.1734 74.2339 75.9932 74.453 75.8423C74.8959 75.5468 75.1467 75.3893 75.1566 75.403Z" fill="#17282F"/>
<path d="M75.2159 53.9946H71.5657V52.267H75.2159V53.9946Z" fill="white"/>
<path d="M77.2827 46.9134C77.3508 46.9186 77.2169 49.5777 76.9841 52.8519C76.7513 56.1281 76.5076 58.7791 76.4395 58.7739C76.3718 58.7692 76.5052 56.1106 76.7381 52.8344C76.9713 49.5597 77.215 46.9087 77.2827 46.9134Z" fill="#17282F"/>
<path d="M11.4319 66.6689H45.9004V59.1454H11.4319V66.6689Z" fill="#349F6E"/>
<path d="M9.13062 96.8804H48.2203V66.7507H9.13062V96.8804Z" fill="#349F6E"/>
<path d="M38.4265 96.6675C38.384 96.6675 38.3491 89.9515 38.3491 81.6689C38.3491 73.3834 38.384 66.6689 38.4265 66.6689C38.4694 66.6689 38.5039 73.3834 38.5039 81.6689C38.5039 89.9515 38.4694 96.6675 38.4265 96.6675Z" fill="#17282F"/>
<path d="M41.9092 94.9707H46.8606V90.0229H41.9092V94.9707Z" fill="#F3F2F1"/>
<path d="M25.4709 73.1797H21.0308V66.8638C22.4337 66.8676 23.9217 66.8704 25.4709 66.8718V73.1797Z" fill="#187B4E"/>
<path d="M21.0559 96.8804H25.4962V90.4515H21.0559V96.8804Z" fill="#187B4E"/>
<path d="M41.98 96.8931C40.8796 96.8883 39.6863 96.885 38.4268 96.8831V96.8803H41.8959L41.98 96.8931Z" fill="#A7A9A8"/>
<path d="M41.9803 96.8931C41.98 96.8931 41.9801 96.8931 41.9798 96.8931L41.8958 96.8803H41.8963L41.9803 96.8931Z" fill="#8F9192"/>
<path d="M47.7382 96.9365C46.4931 96.9186 44.4736 96.9034 41.9803 96.8935L41.8962 96.8807H47.7391C47.7386 96.8992 47.7386 96.9181 47.7382 96.9365ZM48.2204 94.8284V66.7512H48.0888C48.0888 66.72 46.2376 66.6911 43.1898 66.6694H48.2204V94.8284Z" fill="#7D8081"/>
<path d="M48.2205 96.9443C48.0757 96.9415 47.9148 96.9391 47.7383 96.9363C47.7388 96.9179 47.7388 96.8989 47.7392 96.8805H48.2205V94.8285V96.9443Z" fill="#20353D"/>
<path d="M48.2206 96.9614H38.4268V96.8834C39.6863 96.8853 40.8796 96.8886 41.98 96.8933C41.9804 96.8933 41.9802 96.8933 41.9806 96.8933C44.4739 96.9033 46.4933 96.9184 47.7384 96.9364C47.9149 96.9392 48.0758 96.9416 48.2206 96.9444V96.9614Z" fill="#0F191D"/>
<path d="M48.2206 96.8804H38.4268V96.6676C38.4697 96.6676 38.5042 89.9516 38.5042 81.669C38.5042 74.1936 38.4761 67.9973 38.4392 66.8567C44.2111 66.8355 48.089 66.7962 48.089 66.7508H48.2206V94.828V96.8804ZM41.9094 90.0226V94.9704H46.8608V90.0226H41.9094Z" fill="#187B4E"/>
<path d="M38.4268 96.6675V66.8571C38.431 66.8566 38.4349 66.8566 38.4391 66.8566C38.4761 67.9972 38.5042 74.1935 38.5042 81.6689C38.5042 89.9515 38.4696 96.6675 38.4268 96.6675Z" fill="#0F191D"/>
<path d="M41.9092 94.9707H46.8606V90.0229H41.9092V94.9707Z" fill="#349F6E"/>
<path d="M48.0889 66.7511C48.0889 66.8192 39.3825 66.874 28.6452 66.874C17.9041 66.874 9.19971 66.8192 9.19971 66.7511C9.19971 66.683 17.9041 66.6277 28.6452 66.6277C39.3825 66.6277 48.0889 66.683 48.0889 66.7511Z" fill="#17282F"/>
<path d="M36.2505 66.6162H45.9004V59.1455H36.2505V66.6162Z" fill="#187B4E"/>
<path d="M36.1767 66.5669C36.1089 66.5669 36.0537 64.9397 36.0537 62.9327C36.0537 60.9249 36.1089 59.2972 36.1767 59.2972C36.2449 59.2972 36.3001 60.9249 36.3001 62.9327C36.3001 64.9397 36.2449 66.5669 36.1767 66.5669Z" fill="#17282F"/>
<path d="M26.404 61.4272H21.5544V59.1456H26.404V61.4272Z" fill="#187B4E"/>
<path d="M28.3418 59.2914C28.3376 59.291 28.3387 59.2536 28.345 59.1803C28.3542 59.0933 28.3655 58.9874 28.3792 58.8583C28.4141 58.575 28.4781 58.1593 28.5879 57.6283C28.8246 56.5789 29.2328 55.0241 30.2999 53.3822C30.565 52.9736 30.8714 52.5627 31.2281 52.1669C31.5862 51.7791 31.9562 51.3516 32.479 51.0594C32.7366 50.9194 33.0429 50.8074 33.3732 50.8513C33.7047 50.8901 33.9975 51.1327 34.1352 51.432C34.4069 52.0454 34.3014 52.7102 34.1773 53.3406C33.8819 54.6179 33.1149 55.8119 32.1002 56.7842C31.0843 57.7645 29.843 58.5372 28.5786 59.2928C28.5193 59.3288 28.4598 59.3643 28.4051 59.3969L28.3346 59.439L28.2685 59.3907C27.0886 58.5216 25.9531 57.6368 24.9676 56.6551C23.981 55.6795 23.1537 54.5938 22.6067 53.4314C22.465 53.1458 22.3393 52.8483 22.2712 52.5306C22.2034 52.2166 22.2116 51.8671 22.3533 51.5692C22.4842 51.2741 22.7546 51.0178 23.0868 50.9648C23.4186 50.9104 23.7284 51.0424 23.97 51.2022C24.2154 51.3654 24.4217 51.5668 24.6054 51.7673C24.7956 51.964 24.9714 52.1674 25.1422 52.3674C25.4764 52.7727 25.7855 53.1727 26.0509 53.5742C27.1324 55.1697 27.7038 56.6376 28.0075 57.6628C28.1562 58.1787 28.2417 58.5864 28.2888 58.8644C28.3071 58.9916 28.3221 59.0957 28.3343 59.1817C28.3433 59.2536 28.3459 59.291 28.3418 59.2914C28.3376 59.2924 28.3267 59.256 28.3097 59.186C28.291 59.1013 28.2683 58.9987 28.2404 58.8743C28.1779 58.6005 28.0779 58.1986 27.9163 57.6912C27.5871 56.682 26.9958 55.2374 25.9079 53.6721C25.6407 53.2782 25.3313 52.8871 24.9977 52.4899C24.8273 52.2941 24.6524 52.096 24.4633 51.9035C24.2794 51.7054 24.0836 51.52 23.8585 51.3725C23.6361 51.2273 23.3751 51.127 23.123 51.1719C22.8711 51.214 22.6604 51.4093 22.5496 51.659C22.3125 52.1697 22.5352 52.7873 22.8113 53.334C23.35 54.4647 24.1624 55.5249 25.1376 56.4844C26.1114 57.4491 27.2378 58.3258 28.4148 59.1921L28.2785 59.1855C28.333 59.1529 28.3923 59.1169 28.4519 59.0815C29.7149 58.3272 30.9398 57.5649 31.933 56.6102C32.9241 55.6658 33.6681 54.5101 33.9561 53.2891C34.0821 52.6871 34.171 52.0402 33.9398 51.5257C33.8248 51.2765 33.6025 51.0934 33.3424 51.0594C33.084 51.022 32.8143 51.1114 32.5768 51.2386C32.0971 51.4992 31.7254 51.9139 31.3696 52.2941C31.0158 52.6786 30.7108 53.0791 30.4455 53.4782C29.377 55.0804 28.945 56.613 28.6814 57.6496C28.5581 58.174 28.4788 58.5854 28.4283 58.8654C28.4051 58.993 28.3858 59.0975 28.3699 59.1836C28.3554 59.255 28.3459 59.2919 28.3418 59.2914Z" fill="#17282F"/>
<path d="M48.3293 80.068C48.3293 80.1361 39.5689 80.1914 28.7654 80.1914C17.9579 80.1914 9.19971 80.1361 9.19971 80.068C9.19971 80.0004 17.9579 79.9446 28.7654 79.9446C39.5689 79.9446 48.3293 80.0004 48.3293 80.068Z" fill="#17282F"/>
<path d="M28.4207 97.3652C28.3526 97.3652 28.2974 88.7487 28.2974 78.1215C28.2974 67.4905 28.3526 58.8759 28.4207 58.8759C28.4885 58.8759 28.5438 67.4905 28.5438 78.1215C28.5438 88.7487 28.4885 97.3652 28.4207 97.3652Z" fill="#17282F"/>
<g clip-path="url(#clip0_195_18613)">
<path d="M45.8009 17.2323C43.6582 7.81065 35.4343 3.56885 28.2104 3.56885C28.2104 3.56885 28.2104 3.56885 28.19 3.56885C20.9864 3.56885 12.7422 7.79026 10.5995 17.212C8.2119 27.7349 14.6604 36.6468 20.4967 42.2549C22.6598 44.335 25.4351 45.3751 28.2104 45.3751C30.9857 45.3751 33.761 44.335 35.9037 42.2549C41.74 36.6468 48.1884 27.7553 45.8009 17.2323ZM28.2104 27.4494C24.6596 27.4494 21.7823 24.5739 21.7823 21.0255C21.7823 17.4771 24.6596 14.6016 28.2104 14.6016C31.7611 14.6016 34.6385 17.4771 34.6385 21.0255C34.6385 24.5739 31.7611 27.4494 28.2104 27.4494Z" fill="#E7F9FF"/>
</g>
<defs>
<clipPath id="clip0_195_18613">
<rect width="48.9759" height="48.9439" fill="white" transform="translate(3.72241)"/>
</clipPath>
</defs>
</svg>
